<?xml version="1.0" encoding="UTF-8"?>
<svg width="484px" height="493px" viewBox="0 0 484 493" version="1.1" xmlns="http://www.w3.org/2000/svg" xmlns:xlink="http://www.w3.org/1999/xlink">
    <!-- Generator: Sketch 47.1 (45422) - http://www.bohemiancoding.com/sketch -->
    <title>Text</title>
    <desc>Created with Sketch.</desc>
    <defs></defs>
    <g id="Page-1" stroke="none" stroke-width="1" fill="none" fill-rule="evenodd">
        <g id="Outlined" transform="translate(-5.000000, -1.000000)">
            <g id="Text" transform="translate(-19.000000, -29.000000)">
                <g id="I-AM">
                    <rect id="Rectangle-Copy-2" fill="#000000" transform="translate(266.231751, 148.194512) rotate(-7.000000) translate(-266.231751, -148.194512) " x="34.2317511" y="57.6945116" width="464" height="181"></rect>
                    <path d="M59.6905918,79.4121094 L78.9269199,79.4121094 L78.9269199,220 L59.6905918,220 L59.6905918,79.4121094 Z M252.685547,162.386719 L231.34375,100.275391 L208.662109,162.386719 L252.685547,162.386719 Z M221.390625,79.4121094 L242.923828,79.4121094 L293.933594,220 L273.070312,220 L258.810547,177.890625 L203.207031,177.890625 L187.990234,220 L168.466797,220 L221.390625,79.4121094 Z M324.25236,79.4121094 L351.527751,79.4121094 L391.91447,198.275391 L432.014079,79.4121094 L459.00236,79.4121094 L459.00236,220 L440.91447,220 L440.91447,137.025391 C440.91447,134.154283 440.978271,129.401075 441.105876,122.765625 C441.233481,116.130175 441.297282,109.016314 441.297282,101.423828 L401.197673,220 L382.344157,220 L341.957438,101.423828 L341.957438,105.730469 C341.957438,109.175798 342.03719,114.423467 342.196696,121.473633 C342.356202,128.523798 342.435954,133.707666 342.435954,137.025391 L342.435954,220 L324.25236,220 L324.25236,79.4121094 Z" fill="#FFFFFF" transform="translate(259.346476, 149.706055) rotate(-7.000000) translate(-259.346476, -149.706055) "></path>
                </g>
                <g id="WHAT-I" transform="translate(3.000000, 203.000000)">
                    <rect id="Rectangle-Copy" fill="#000000" transform="translate(263.231751, 97.694512) rotate(8.000000) translate(-263.231751, -97.694512) " x="31.2317511" y="36.6945116" width="464" height="122"></rect>
                    <path d="M153.372911,56.5055421 L177.636583,56.5055421 L177.636583,65.0372804 L171.126817,65.0372804 L149.772813,131.269214 L134.681993,131.269214 L114.41295,66.1222413 L95.7220318,131.269214 L80.7791607,131.269214 L58.9813091,65.0372804 L52.3729107,65.0372804 L52.3729107,56.5055421 L76.6365826,56.5055421 L76.6365826,65.0372804 L70.1268169,65.0372804 L88.225938,122.490894 L107.311387,56.5055421 L122.056993,56.5055421 L142.375352,122.490894 L160.819688,65.0372804 L153.372911,65.0372804 L153.372911,56.5055421 Z M236.778132,56.5055421 L261.041804,56.5055421 L261.041804,64.987964 L253.940242,64.987964 L253.940242,122.786792 L261.041804,122.786792 L261.041804,131.269214 L236.778132,131.269214 L236.778132,122.786792 L244.274226,122.786792 L244.274226,95.9093507 L201.023738,95.9093507 L201.023738,122.786792 L208.519832,122.786792 L208.519832,131.269214 L184.25616,131.269214 L184.25616,122.786792 L191.357722,122.786792 L191.357722,64.987964 L184.25616,64.987964 L184.25616,56.5055421 L208.519832,56.5055421 L208.519832,64.987964 L201.023738,64.987964 L201.023738,87.6241945 L244.274226,87.6241945 L244.274226,64.987964 L236.778132,64.987964 L236.778132,56.5055421 Z M318.45728,122.786792 L324.671147,122.786792 L318.753178,105.821948 L290.001713,105.821948 L284.231694,122.786792 L291.925053,122.786792 L291.925053,131.269214 L267.661381,131.269214 L267.661381,122.786792 L274.171147,122.786792 L297.448491,56.5055421 L311.996831,56.5055421 L335.224858,122.786792 L342.720952,122.786792 L342.720952,131.269214 L318.45728,131.269214 L318.45728,122.786792 Z M292.812749,97.6354249 L315.892827,97.6354249 L304.254155,64.1989015 L292.812749,97.6354249 Z M355.554396,122.786792 L362.409376,122.786792 L362.409376,64.5934327 L345.3459,64.5934327 L345.3459,76.2321046 L335.236037,76.2321046 L335.236037,56.5055421 L401.911818,56.5055421 L401.911818,76.2321046 L391.801955,76.2321046 L391.801955,64.5934327 L372.075392,64.5934327 L372.075392,122.786792 L379.768751,122.786792 L379.768751,131.269214 L355.554396,131.269214 L355.554396,122.786792 Z M431.22812,56.5055421 L455.097261,56.5055421 L455.097261,65.0372804 L447.995699,65.0372804 L447.995699,122.786792 L455.097261,122.786792 L455.097261,131.269214 L431.22812,131.269214 L431.22812,122.786792 L438.329683,122.786792 L438.329683,65.0372804 L431.22812,65.0372804 L431.22812,56.5055421 Z" fill="#FFFFFF" transform="translate(253.735086, 93.887378) rotate(8.000000) translate(-253.735086, -93.887378) "></path>
                </g>
                <g id="CREATE" transform="translate(8.000000, 319.000000)">
                    <rect id="Rectangle" fill="#000000" transform="translate(258.105316, 118.916439) rotate(-6.000000) translate(-258.105316, -118.916439) " x="26.105316" y="57.9164391" width="464" height="122"></rect>
                    <path d="M112.830428,81.0438093 L116.748397,86.6883405 L117.678084,85.8250593 L118.474959,86.821153 L118.142928,92.2000593 C118.098657,93.3953778 116.349976,94.1922448 112.896834,94.5906843 L112.896834,93.6609968 C107.451494,95.1219416 103.024455,97.2469204 99.6155842,100.035997 L97.158553,98.9734968 L97.955428,99.9695905 L97.8890217,100.832872 L87.9280842,109.266466 L87.9944905,108.336778 L91.6468342,104.086778 L89.9202717,103.953966 C89.7874585,106.344603 88.592158,107.473497 86.3343342,107.340684 C86.0687079,111.325079 84.1208107,115.110198 80.4905842,118.696153 C76.1077498,124.230035 73.7614191,129.808104 73.4515217,135.430528 L73.3187092,137.223497 C75.5322619,140.366742 78.8746764,142.093287 83.346053,142.403184 L90.1858967,142.801622 C98.1546866,143.332874 112.586834,141.562059 133.482772,137.489122 C135.607782,137.621935 137.954113,136.869338 140.521834,135.231309 L145.568709,136.426622 C145.701522,134.65578 146.321308,133.792507 147.428084,133.836778 L149.154647,133.969591 C148.977562,136.980022 147.472369,138.396675 144.639022,138.219591 L144.572615,139.082872 L145.36949,140.078966 L145.303084,140.942247 L131.357772,144.594591 L130.49449,143.598497 C130.05178,145.369339 127.727584,146.121936 123.521834,145.856309 L122.724959,144.926622 L121.861678,144.860216 L119.86949,149.243028 L119.072615,148.313341 L116.482772,148.114122 L111.170272,150.504747 L110.373397,149.575059 L109.510115,149.508653 L94.767928,152.164903 L94.8343342,151.235216 L83.5452717,153.227403 C68.2717578,149.774261 61.033549,141.473563 61.830428,128.325059 C69.7549467,111.059348 81.1545723,97.9553123 96.0296467,89.0125593 C101.652071,84.0542012 107.252275,81.3979777 112.830428,81.0438093 Z M76.971053,118.231309 C78.9632504,117.168804 81.7301498,114.114147 85.2718342,109.067247 L84.408553,109.067247 C79.5387369,113.582894 77.0595951,116.637551 76.971053,118.231309 Z M74.2483967,120.688341 L75.8421467,122.547716 L76.0413655,119.028184 L74.2483967,120.688341 Z M163.033553,130.582872 L156.791365,133.703966 L167.217147,132.641466 L167.283553,130.848497 L163.033553,130.582872 Z M152.541365,133.438341 L150.814803,133.371934 L149.885115,134.168809 L150.68199,135.098497 C150.637719,136.249544 149.752312,136.780789 148.02574,136.692247 L147.959334,137.555528 L153.139022,137.887559 C154.245798,137.93183 154.865584,137.090693 154.998397,135.364122 L156.724959,135.496934 L156.724959,134.567247 L152.541365,133.438341 Z M161.639022,79.383653 L169.342147,79.383653 C175.230197,79.383653 181.29524,83.4343938 187.537459,91.5359968 L187.537459,92.2664655 C187.271833,96.4722157 186.098668,100.522956 184.017928,104.418809 C181.18458,109.996962 179.325224,112.785997 178.439803,112.785997 L177.045272,114.313341 C177.045272,115.331575 175.628619,115.840684 172.795272,115.840684 C172.795272,117.74434 170.935915,119.758642 167.217147,121.883653 L166.553084,122.680528 L165.822615,121.883653 C165.822615,124.27429 164.184611,125.801618 160.908553,126.465684 L160.24449,128.723497 C161.926791,129.741731 172.66236,132.021656 192.451522,135.563341 C209.008896,141.274307 218.571301,145.568534 221.139022,148.446153 L221.139022,149.243028 C221.139022,153.09461 218.327852,155.3524 212.705428,156.016466 C208.455407,149.331536 192.36312,143.775602 164.428084,139.348497 C164.428084,141.119339 165.357762,142.890155 167.217147,144.660997 L170.736678,151.500841 C170.736678,152.784701 168.855186,154.046407 165.092147,155.285997 C149.243109,147.759918 136.89167,133.349905 128.037459,112.055528 L127.30699,104.418809 C127.30699,94.9448036 137.821208,87.1089445 158.849959,80.9109968 L161.639022,79.383653 Z M132.951522,108.203966 L132.951522,109.000841 C132.951522,112.232628 135.03223,118.054184 139.193709,126.465684 L140.58824,126.465684 C141.42939,125.44745 143.775721,124.938341 147.627303,124.938341 C147.627303,123.787293 148.800468,123.034696 151.146834,122.680528 C149.243179,114.933093 148.291365,107.584209 148.291365,100.633653 L148.291365,96.8484968 L150.416365,94.5906843 C153.028358,94.5906843 155.352553,96.6049871 157.389022,100.633653 L157.389022,109.000841 C157.389022,115.065975 158.340835,118.098497 160.24449,118.098497 C173.304452,107.606257 179.834334,99.5047754 179.834334,93.7938093 L179.834334,93.0633405 C177.57651,89.5216562 173.370823,87.7508405 167.217147,87.7508405 L164.428084,87.7508405 C154.732723,87.7508405 144.461993,93.3067746 133.615584,104.418809 L132.951522,108.203966 Z M149.021834,137.090684 C149.508816,138.463087 152.076498,140.47739 156.724959,143.133653 L156.724959,141.672716 C155.795267,138.618013 154.157263,137.090684 151.810897,137.090684 L149.021834,137.090684 Z M289.205428,80.3797468 L289.205428,81.0438093 L289.803084,80.3797468 L298.170272,80.3797468 L300.560897,81.0438093 L302.951522,80.3797468 L302.951522,81.7078718 L301.158553,82.3719343 L301.158553,81.7078718 L300.560897,82.3719343 L299.96324,82.3719343 L299.365584,81.7078718 L298.767928,81.7078718 L298.170272,82.3719343 L298.170272,83.0359968 L293.986678,81.7078718 L292.193709,83.7000593 L291.596053,83.7000593 L292.193709,83.0359968 L292.193709,82.3719343 L289.803084,82.3719343 L289.803084,84.3641218 L286.283553,84.3641218 L285.685897,82.3719343 L282.697615,84.3641218 L282.099959,84.3641218 L280.30699,83.0359968 C280.30699,84.3641284 279.908557,85.0281843 279.111678,85.0281843 L277.916365,83.7000593 L277.916365,84.3641218 L277.318709,83.7000593 L275.52574,83.7000593 C275.52574,86.0464252 274.92809,87.3966721 273.732772,87.7508405 L273.135115,87.7508405 L274.330428,85.758653 L273.135115,85.758653 L273.135115,87.086778 L270.74449,87.086778 C269.947611,87.086778 269.549178,86.400587 269.549178,85.0281843 L268.951522,85.0281843 C268.951522,86.6219423 267.158571,87.7508372 263.572615,88.414903 C263.572615,89.7430347 263.174182,90.4070905 262.377303,90.4070905 L260.584334,90.4070905 L260.584334,89.0789655 L258.260115,89.0789655 L258.791365,89.743028 L258.791365,90.4070905 L257.662459,91.8016218 L256.467147,91.8016218 L254.674178,90.4070905 L253.478865,90.4070905 L254.076522,91.071153 L254.076522,92.4656843 C247.30305,94.2365265 240.928114,96.4721812 234.951522,99.1727155 L238.537459,103.887559 L238.537459,105.879747 L230.767928,111.922716 L224.857772,122.016466 L224.857772,123.344591 L225.455428,123.344591 C235.150789,118.341961 253.235244,113.184461 279.709334,107.871934 L280.904647,110.594591 C280.904647,114.534714 276.721095,116.991721 268.353865,117.965684 L267.756209,117.301622 L249.892928,122.016466 L249.295272,121.352403 C248.719748,122.282095 244.93463,124.075046 237.939803,126.731309 L236.74449,128.723497 L236.74449,129.387559 C237.939809,129.387559 238.537459,129.852398 238.537459,130.782091 C238.537459,132.02168 236.943725,132.907088 233.756209,133.438341 C227.425448,133.438341 224.260115,130.759982 224.260115,125.403184 L223.064803,125.403184 L221.271834,134.102403 L221.271834,137.489122 C221.271834,141.960498 224.835601,144.196153 231.96324,144.196153 L236.74449,144.196153 C249.538825,144.196153 261.469696,140.831603 272.537459,134.102403 L273.732772,134.102403 C274.396838,134.102403 275.193705,135.674002 276.123397,138.817247 L275.52574,138.817247 L276.721053,142.203966 L276.123397,142.203966 L273.135115,142.868028 L272.537459,142.203966 C272.537459,143.532097 272.139026,144.196153 271.342147,144.196153 L270.74449,143.532091 C266.273114,147.560757 254.54146,150.703954 235.549178,152.961778 C225.765275,152.961778 219.01404,149.81858 215.295272,143.532091 L213.502303,135.430528 C213.502303,127.506009 217.486638,117.655847 225.455428,105.879747 L225.455428,104.551622 L223.064803,103.887559 L222.467147,104.551622 C220.873389,102.647966 220.076522,100.855016 220.076522,99.1727155 L220.076522,97.180528 C223.086953,94.74562 228.642887,92.4878301 236.74449,90.4070905 L238.537459,91.071153 C241.326536,90.6284425 242.721053,89.7430347 242.721053,88.414903 L244.514022,89.0789655 L269.549178,83.0359968 L271.342147,83.7000593 L279.709334,81.7078718 L279.709334,82.3719343 L289.205428,80.3797468 Z M320.017928,80.3797468 C326.127334,80.3797468 331.39551,87.086711 335.822615,100.500841 L336.553084,101.098497 L336.553084,101.696153 L335.822615,105.215684 C337.106476,105.215684 338.257506,107.384933 339.27574,111.723497 C341.090854,112.918815 343.149427,113.516466 345.451522,113.516466 L346.115584,114.114122 L346.115584,114.711778 C346.115584,115.508657 344.986689,115.907091 342.728865,115.907091 L342.728865,116.438341 L344.05699,121.219591 L343.392928,120.621934 L342.728865,120.621934 L342.728865,121.817247 L343.392928,121.817247 L344.05699,121.219591 L344.787459,121.219591 C345.318712,124.761275 346.004903,126.532091 346.846053,126.532091 L346.115584,127.129747 L346.115584,128.325059 L346.846053,128.325059 L346.846053,127.129747 L348.174178,127.129747 L350.96324,134.235216 L350.299178,134.832872 C351.494496,134.832872 352.623391,135.80682 353.685897,137.754747 L353.021834,138.352403 L353.021834,138.950059 C355.76664,141.606323 357.139022,144.572439 357.139022,147.848497 L353.685897,152.563341 L352.357772,152.563341 C346.027011,150.969583 342.817408,149.5972 342.728865,148.446153 C346.846074,147.560732 348.904647,146.763865 348.904647,146.055528 C348.904647,144.550312 344.7875,135.873316 336.553084,120.024278 C335.844747,120.024278 335.158556,119.227411 334.49449,117.633653 C331.705414,117.633653 330.310897,118.231303 330.310897,119.426622 L329.646834,118.828966 L328.982772,118.828966 L326.193709,121.219591 L325.529647,120.621934 L324.865584,120.621934 C320.881189,121.418813 317.671586,122.591979 315.236678,124.141466 L313.178084,123.543809 C312.425476,124.606315 309.437225,126.200049 304.21324,128.325059 L300.760115,137.157091 L301.490584,137.754747 L302.154647,137.754747 L300.096053,141.340684 L300.760115,141.938341 L300.760115,142.535997 C299.387713,147.892794 298.015331,151.235209 296.642928,152.563341 C296.642928,153.714388 296.200224,154.289903 295.314803,154.289903 L297.373397,163.785997 L293.920272,165.578966 C290.245774,165.269068 288.408553,163.874551 288.408553,161.395372 C288.408553,157.366706 289.559583,151.08031 291.861678,142.535997 C282.69757,141.871931 278.115584,139.304248 278.115584,134.832872 L278.115584,133.637559 C281.524455,131.246922 288.165014,127.683156 298.037459,122.946153 C306.493231,94.568407 313.81998,80.3797468 320.017928,80.3797468 Z M321.412459,87.4852155 L313.178084,98.1102155 L313.842147,98.7078718 L313.842147,99.305528 L313.178084,99.9031843 L312.447615,99.9031843 L311.783553,99.305528 L311.783553,99.9031843 L312.447615,102.293809 L311.783553,102.293809 L312.447615,102.891466 L312.447615,104.020372 L311.11949,105.215684 L311.11949,102.293809 L310.389022,102.293809 L308.330428,108.801622 L308.330428,109.399278 L309.060897,109.399278 L309.060897,108.203966 L309.724959,108.203966 L309.724959,109.399278 C309.282249,111.745644 308.596058,112.918809 307.666365,112.918809 L307.002303,112.321153 L307.666365,116.438341 L307.666365,119.426622 L317.959334,116.438341 L318.689803,117.035997 L319.353865,117.035997 L328.982772,114.114122 L331.041365,114.711778 L331.705428,114.114122 L332.36949,114.711778 L333.099959,114.114122 L333.099959,113.516466 C333.099959,110.151865 329.425517,101.474869 322.076522,87.4852155 L321.412459,87.4852155 Z M290.467147,136.559434 L290.467147,137.754747 L293.920272,137.754747 L294.584334,134.235216 L293.920272,134.235216 L290.467147,136.559434 Z M378.455428,80.3797468 L380.18199,81.1766218 L380.71324,80.3797468 L384.033553,81.1766218 C405.637828,82.5490245 416.439803,85.4265999 416.439803,89.8094343 L416.971053,92.9969343 L415.842147,94.524278 L416.439803,95.321153 L412.521834,96.914903 C405.084297,92.7091529 395.588298,90.6063093 384.033553,90.6063093 L374.006209,90.6063093 C372.987975,90.6063093 371.681998,104.507212 370.08824,132.309434 L370.08824,145.657091 L370.685897,149.575059 C368.693699,152.187052 367.210641,153.493028 366.236678,153.493028 C364.377294,150.349783 363.447615,146.166231 363.447615,140.942247 L363.447615,133.106309 L365.639022,92.9969343 L365.639022,91.4031843 L340.006209,93.7938093 C338.146825,93.7938093 336.840848,91.6909657 336.08824,87.4852155 L337.217147,81.9734968 L345.584334,82.7703718 L376.264022,81.1766218 L378.455428,80.3797468 Z M458.607772,80.3797468 L458.607772,81.0438093 L459.205428,80.3797468 L467.572615,80.3797468 L469.96324,81.0438093 L472.353865,80.3797468 L472.353865,81.7078718 L470.560897,82.3719343 L470.560897,81.7078718 L469.96324,82.3719343 L469.365584,82.3719343 L468.767928,81.7078718 L468.170272,81.7078718 L467.572615,82.3719343 L467.572615,83.0359968 L463.389022,81.7078718 L461.596053,83.7000593 L460.998397,83.7000593 L461.596053,83.0359968 L461.596053,82.3719343 L459.205428,82.3719343 L459.205428,84.3641218 L455.685897,84.3641218 L455.08824,82.3719343 L452.099959,84.3641218 L451.502303,84.3641218 L449.709334,83.0359968 C449.709334,84.3641284 449.310901,85.0281843 448.514022,85.0281843 L447.318709,83.7000593 L447.318709,84.3641218 L446.721053,83.7000593 L444.928084,83.7000593 C444.928084,86.0464252 444.330434,87.3966721 443.135115,87.7508405 L442.537459,87.7508405 L443.732772,85.758653 L442.537459,85.758653 L442.537459,87.086778 L440.146834,87.086778 C439.349955,87.086778 438.951522,86.400587 438.951522,85.0281843 L438.353865,85.0281843 C438.353865,86.6219423 436.560915,87.7508372 432.974959,88.414903 C432.974959,89.7430347 432.576526,90.4070905 431.779647,90.4070905 L429.986678,90.4070905 L429.986678,89.0789655 L427.662459,89.0789655 L428.193709,89.743028 L428.193709,90.4070905 L427.064803,91.8016218 L425.86949,91.8016218 L424.076522,90.4070905 L422.881209,90.4070905 L423.478865,91.071153 L423.478865,92.4656843 C416.705394,94.2365265 410.330458,96.4721812 404.353865,99.1727155 L407.939803,103.887559 L407.939803,105.879747 L400.170272,111.922716 L394.260115,122.016466 L394.260115,123.344591 L394.857772,123.344591 C404.553133,118.341961 422.637587,113.184461 449.111678,107.871934 L450.30699,110.594591 C450.30699,114.534714 446.123439,116.991721 437.756209,117.965684 L437.158553,117.301622 L419.295272,122.016466 L418.697615,121.352403 C418.122092,122.282095 414.336973,124.075046 407.342147,126.731309 L406.146834,128.723497 L406.146834,129.387559 C407.342153,129.387559 407.939803,129.852398 407.939803,130.782091 C407.939803,132.02168 406.346069,132.907088 403.158553,133.438341 C396.827792,133.438341 393.662459,130.759982 393.662459,125.403184 L392.467147,125.403184 L390.674178,134.102403 L390.674178,137.489122 C390.674178,141.960498 394.237944,144.196153 401.365584,144.196153 L406.146834,144.196153 C418.941169,144.196153 430.872039,140.831603 441.939803,134.102403 L443.135115,134.102403 C443.799181,134.102403 444.596048,135.674002 445.52574,138.817247 L444.928084,138.817247 L446.123397,142.203966 L445.52574,142.203966 L442.537459,142.868028 L441.939803,142.203966 C441.939803,143.532097 441.541369,144.196153 440.74449,144.196153 L440.146834,143.532091 C435.675458,147.560757 423.943804,150.703954 404.951522,152.961778 C395.167619,152.961778 388.416384,149.81858 384.697615,143.532091 L382.904647,135.430528 C382.904647,127.506009 386.888982,117.655847 394.857772,105.879747 L394.857772,104.551622 L392.467147,103.887559 L391.86949,104.551622 C390.275732,102.647966 389.478865,100.855016 389.478865,99.1727155 L389.478865,97.180528 C392.489297,94.74562 398.045231,92.4878301 406.146834,90.4070905 L407.939803,91.071153 C410.728879,90.6284425 412.123397,89.7430347 412.123397,88.414903 L413.916365,89.0789655 L438.951522,83.0359968 L440.74449,83.7000593 L449.111678,81.7078718 L449.111678,82.3719343 L458.607772,80.3797468 Z" fill="#FFFFFF" transform="translate(267.062510, 122.481309) rotate(-7.000000) translate(-267.062510, -122.481309) "></path>
                </g>
            </g>
        </g>
    </g>
</svg>